HIERARCHY
ROOT Hips
{
    OFFSET 0.000000 0.000000 0.000000
    CHANNELS 6 Xposition Yposition Zposition Zrotation Xrotation Yrotation
    JOINT Spine
    {
        OFFSET -0.000000 14.517291 0.000000
        CHANNELS 3 Zrotation Xrotation Yrotation
        JOINT Spine1
        {
            OFFSET -0.000000 37.558300 0.000000
            CHANNELS 3 Zrotation Xrotation Yrotation
            JOINT Neck
            {
                OFFSET -0.000000 37.404057 3.400369
                CHANNELS 3 Zrotation Xrotation Yrotation
                JOINT Head
                {
                    OFFSET -0.000000 24.785618 -3.540803
                    CHANNELS 3 Zrotation Xrotation Yrotation
                    End Site
                    {
                        OFFSET -0.000000 35.408028 0.000000
                    }
                }
            }
            JOINT LeftShoulder
            {
                OFFSET 6.992933 33.973492 -0.192664
                CHANNELS 3 Zrotation Xrotation Yrotation
                JOINT LeftArm
                {
                    OFFSET 21.527611 0.000000 0.000000
                    CHANNELS 3 Zrotation Xrotation Yrotation
                    JOINT LeftForeArm
                    {
                        OFFSET 56.353916 0.000000 0.000000
                        CHANNELS 3 Zrotation Xrotation Yrotation
                        JOINT LeftHand
                        {
                            OFFSET 47.774071 0.000000 0.000000
                            CHANNELS 3 Zrotation Xrotation Yrotation
                            End Site
                            {
                                OFFSET 26.556021 0.000000 0.000000
                            }
                        }
                    }
                }
            }
            JOINT RightShoulder
            {
                OFFSET -7.065357 33.973492 -0.192664
                CHANNELS 3 Zrotation Xrotation Yrotation
                JOINT RightArm
                {
                    OFFSET -21.527611 0.000000 0.000000
                    CHANNELS 3 Zrotation Xrotation Yrotation
                    JOINT RightForeArm
                    {
                        OFFSET -56.353916 0.000000 0.000000
                        CHANNELS 3 Zrotation Xrotation Yrotation
                        JOINT RightHand
                        {
                            OFFSET -47.774071 0.000000 0.000000
                            CHANNELS 3 Zrotation Xrotation Yrotation
                            End Site
                            {
                                OFFSET -26.556021 0.000000 0.000000
                            }
                        }
                    }
                }
            }
        }
    }
    JOINT LeftUpLeg
    {
        OFFSET 17.704014 0.000000 0.000000
        CHANNELS 3 Zrotation Xrotation Yrotation
        JOINT LeftLeg
        {
            OFFSET -0.000000 -81.181816 0.000000
            CHANNELS 3 Zrotation Xrotation Yrotation
            JOINT LeftFoot
            {
                OFFSET -0.000000 -62.821102 0.000000
                CHANNELS 3 Zrotation Xrotation Yrotation
                JOINT LeftToeBase
                {
                    OFFSET -0.000000 -11.507608 26.556021
                    CHANNELS 3 Zrotation Xrotation Yrotation
                    End Site
                    {
                        OFFSET -0.000000 0.000000 7.081605
                    }
                }
            }
        }
    }
    JOINT RightUpLeg
    {
        OFFSET -17.704014 0.000000 0.000000
        CHANNELS 3 Zrotation Xrotation Yrotation
        JOINT RightLeg
        {
            OFFSET -0.000000 -81.181816 0.000000
            CHANNELS 3 Zrotation Xrotation Yrotation
            JOINT RightFoot
            {
                OFFSET -0.000000 -62.821102 0.000000
                CHANNELS 3 Zrotation Xrotation Yrotation
                JOINT RightToeBase
                {
                    OFFSET -0.000000 -11.507608 26.556021
                    CHANNELS 3 Zrotation Xrotation Yrotation
                    End Site
                    {
                        OFFSET -0.000000 0.000000 7.081605
                    }
                }
            }
        }
    }
}
MOTION
Frames:    13
Frame Time:    0.008333
9.661503    157.995483    -99.291084    2.945782    -7.967737    107.463516    1.661294    -2.395709    2.622147    -16.353374    5.480183    1.648108    -7.376272    -5.166532    -19.211842    16.959997    0.550199    -16.311045    9.616943    -1.544050    -16.739525    -23.256498    26.117441    -76.702202    -30.719584    10.050144    -93.866585    -13.110876    -22.978617    -8.485563    -21.024103    -6.227361    0.371478    9.768730    4.152022    21.261280    -10.158401    -20.620340    -6.040946    -0.700941    -21.235292    19.578104    22.511585    -21.477188    -29.500912    -5.050633    17.568668    -35.179501    -16.522165    -11.519264    24.215984    0.000000    0.000000    0.000000    -6.956570    2.770665    -34.547817    6.964318    25.188658    -24.191422    3.792114    -0.265734    -38.208042    0.000000    0.000000    0.000000    
9.573714    157.975647    -99.348099    2.923625    -7.946131    107.389214    1.570133    -2.359441    2.672722    -16.232216    5.431778    1.653024    -7.231429    -5.126156    -19.239767    16.827911    0.469954    -16.377596    9.670581    -1.509447    -16.881964    -23.328663    26.094591    -76.747749    -30.707243    10.015835    -93.730934    -13.098401    -22.909147    -8.558103    -20.926039    -6.188618    0.236736    9.661664    4.055268    21.347570    -10.034980    -20.488916    -5.987444    -0.765941    -21.104982    19.679356    22.485710    -21.483063    -29.434797    -5.046072    17.571976    -35.155567    -16.550047    -11.535961    24.204340    0.000000    0.000000    0.000000    -7.036250    2.711508    -34.485229    6.996755    25.229263    -24.214777    3.754812    -0.293143    -38.163597    0.000000    0.000000    0.000000    
9.486607    157.958191    -99.413330    2.906096    -7.918112    107.307831    1.490322    -2.313330    2.728898    -16.137808    5.374846    1.659932    -7.064707    -5.116826    -19.294975    16.674301    0.456457    -16.487825    9.730884    -1.477647    -17.027790    -23.415277    26.085932    -76.782974    -30.734730    9.972467    -93.589554    -13.043413    -22.901581    -8.559143    -20.807125    -6.168858    0.116190    9.547691    4.014216    21.401512    -9.968793    -20.411146    -5.904646    -0.710347    -21.008673    19.705610    22.449728    -21.482656    -29.392912    -5.057200    17.575209    -35.150764    -16.663525    -11.557341    24.253864    0.000000    0.000000    0.000000    -7.123091    2.662253    -34.417862    7.028426    25.261696    -24.231256    3.709705    -0.307913    -38.119553    0.000000    0.000000    0.000000    
9.393847    157.943863    -99.472275    2.887023    -7.901204    107.220955    1.417496    -2.266511    2.790017    -16.050140    5.320417    1.669222    -6.869017    -5.092789    -19.330664    16.500484    0.390563    -16.579290    9.813128    -1.447797    -17.178656    -23.500170    26.081009    -76.832085    -30.740459    9.885228    -93.444313    -13.062720    -22.899019    -8.593452    -20.682325    -6.106740    -0.021011    9.434817    4.014488    21.454145    -9.946957    -20.413050    -5.780481    -0.755897    -21.006907    19.724531    22.430185    -21.490610    -29.356077    -5.070883    17.592461    -35.142658    -16.638084    -11.569970    24.303387    0.000000    0.000000    0.000000    -7.200766    2.607465    -34.354946    7.067456    25.286802    -24.225393    3.667571    -0.319410    -38.108967    0.000000    0.000000    0.000000    
9.307924    157.929581    -99.529709    2.874944    -7.883783    107.127869    1.320244    -2.216173    2.842019    -15.915489    5.261217    1.672897    -6.728929    -5.050499    -19.373064    16.385057    0.327997    -16.660666    9.882353    -1.385249    -17.318237    -23.592058    26.049852    -76.874596    -30.708271    9.826843    -93.306427    -13.089358    -22.830660    -8.622981    -20.572903    -6.072468    -0.132267    9.317779    3.985272    21.521231    -9.961511    -20.472324    -5.697009    -0.706220    -21.051500    19.678083    22.411516    -21.486095    -29.302174    -5.076066    17.616549    -35.136135    -16.597342    -11.582327    24.341925    0.000000    0.000000    0.000000    -7.279873    2.556898    -34.255394    7.122166    25.321287    -24.264025    3.626100    -0.333626    -38.064037    0.000000    0.000000    0.000000    
9.224800    157.919159    -99.596977    2.865602    -7.867105    107.030342    1.221494    -2.169122    2.893160    -15.764533    5.208944    1.676527    -6.583373    -5.049540    -19.404514    16.220161    0.303526    -16.741217    9.913642    -1.349898    -17.468277    -23.716629    26.035347    -76.868690    -30.703817    9.810565    -93.154694    -13.059711    -22.754129    -8.620042    -20.486315    -6.053149    -0.241086    9.219679    3.933157    21.594225    -9.926823    -20.428547    -5.637739    -0.738128    -21.006937    19.730766    22.386969    -21.481133    -29.281729    -5.079632    17.656105    -35.141811    -16.510153    -11.590033    24.425175    0.000000    0.000000    0.000000    -7.361808    2.515289    -34.178352    7.175156    25.343359    -24.281631    3.577823    -0.329258    -38.023144    0.000000    0.000000    0.000000    
9.136250    157.904572    -99.668213    2.851003    -7.859696    106.919228    1.131006    -2.127528    2.949863    -15.608104    5.161860    1.682522    -6.442598    -5.073782    -19.433529    16.051846    0.297278    -16.819872    9.943344    -1.303949    -17.585936    -23.829819    26.012619    -76.897293    -30.715612    9.792795    -92.985588    -13.036712    -22.682564    -8.662303    -20.397125    -6.029073    -0.364831    9.106732    3.852620    21.688288    -9.883525    -20.396130    -5.574715    -0.830546    -20.982769    19.760660    22.371658    -21.486444    -29.264423    -5.094600    17.715111    -35.136192    -16.385975    -11.612285    24.563635    0.000000    0.000000    0.000000    -7.444567    2.460253    -34.096466    7.232070    25.377810    -24.277252    3.524799    -0.327920    -37.975960    0.000000    0.000000    0.000000    
9.048336    157.889496    -99.739433    2.833571    -7.855005    106.807304    1.057492    -2.094294    3.016670    -15.483191    5.127738    1.695088    -6.288839    -5.081575    -19.464554    15.899428    0.266930    -16.898716    9.995035    -1.251048    -17.714186    -23.953550    25.955803    -76.930397    -30.774166    9.809139    -92.794418    -12.942470    -22.624945    -8.703518    -20.301956    -5.995354    -0.514162    9.002295    3.844582    21.774101    -9.834418    -20.279339    -5.484020    -0.905202    -20.869490    19.824196    22.350904    -21.504055    -29.254452    -5.098714    17.800175    -35.171162    -16.204521    -11.625021    24.765413    0.000000    0.000000    0.000000    -7.533576    2.405850    -34.003536    7.320216    25.409143    -24.269201    3.452473    -0.330879    -37.960598    0.000000    0.000000    0.000000    
8.961139    157.872055    -99.808861    2.817907    -7.869294    106.678963    1.008839    -2.055346    3.093286    -15.354634    5.069404    1.707381    -6.168643    -5.074667    -19.492496    15.771523    0.242067    -16.966009    10.021301    -1.199847    -17.866880    -24.081621    25.901657    -76.912766    -30.816612    9.834764    -92.619629    -12.856061    -22.548428    -8.754739    -20.227097    -5.950673    -0.637993    8.912464    3.886432    21.836569    -9.864656    -20.246559    -5.391269    -0.946597    -20.837643    19.848793    22.346956    -21.525051    -29.259674    -5.109214    17.911554    -35.139484    -15.945484    -11.631001    25.015373    0.000000    0.000000    0.000000    -7.605283    2.345555    -33.888950    7.414978    25.436504    -24.272266    3.355184    -0.318373    -37.913578    0.000000    0.000000    0.000000    
8.872633    157.846039    -99.880554    2.822123    -7.886952    106.540184    0.985709    -1.993977    3.176300    -15.270351    5.012403    1.724039    -5.985348    -5.060359    -19.515570    15.617830    0.190907    -17.040926    10.087734    -1.151029    -18.019457    -24.198925    25.840790    -76.910530    -30.844004    9.842361    -92.453102    -12.713306    -22.483681    -8.771914    -20.103636    -5.938168    -0.777394    8.788350    3.886905    21.927586    -9.827539    -20.210510    -5.313010    -1.014670    -20.804987    19.858004    22.352165    -21.538630    -29.261816    -5.113849    18.051056    -35.157764    -15.620146    -11.673298    25.294291    0.000000    0.000000    0.000000    -7.676186    2.304973    -33.761803    7.532285    25.463036    -24.278341    3.212457    -0.311354    -37.842987    0.000000    0.000000    0.000000    
8.793441    157.815140    -99.949524    2.832757    -7.911730    106.395424    0.936300    -1.936978    3.251126    -15.137417    4.949196    1.735257    -5.801858    -5.028961    -19.517622    15.459960    0.131642    -17.094215    10.153496    -1.079098    -18.156244    -24.266882    25.808121    -76.938530    -30.815992    9.768420    -92.312393    -12.726614    -22.433773    -8.821200    -19.982733    -5.930262    -0.861811    8.663260    3.733062    21.995022    -9.699150    -20.122261    -5.248759    -1.042465    -20.711782    19.958046    22.362185    -21.554829    -29.289492    -5.119328    18.211325    -35.154362    -15.483100    -11.786273    25.488966    0.000000    0.000000    0.000000    -7.740195    2.272080    -33.636536    7.653093    25.484175    -24.277958    3.031462    -0.276448    -37.744083    0.000000    0.000000    0.000000    
8.727326    157.783188    -100.050644    2.857843    -7.935331    106.237404    0.928355    -1.893964    3.335081    -15.043736    4.909249    1.754044    -5.627453    -4.942615    -19.542051    15.347748    0.046326    -17.162300    10.218965    -1.017908    -18.293961    -24.378571    25.753862    -76.942230    -30.865051    9.760615    -92.127274    -12.701669    -22.384901    -8.880615    -19.855110    -5.887449    -0.944935    8.527847    3.546201    22.072723    -9.560288    -20.032181    -5.169367    -1.050485    -20.611984    20.050665    22.368515    -21.547493    -29.346079    -5.149677    18.366581    -35.071239    -15.532195    -11.958556    25.689411    0.000000    0.000000    0.000000    -7.823421    2.258156    -33.548779    7.768932    25.516876    -24.254337    2.868922    -0.225750    -37.620365    0.000000    0.000000    0.000000    
8.641623    157.752747    -100.113144    2.858123    -7.977218    106.072289    0.882667    -1.840936    3.417021    -14.892276    4.829746    1.764851    -5.462523    -4.922475    -19.542463    15.192378    0.017547    -17.213367    10.256822    -0.970069    -18.419044    -24.431057    25.733810    -76.960052    -30.886074    9.711674    -91.985962    -12.674915    -22.372807    -8.899213    -19.755886    -5.854678    -1.028934    8.411253    3.506414    22.126236    -9.529216    -19.987091    -5.078690    -0.982764    -20.548046    20.123886    22.403616    -21.586800    -29.338743    -5.184890    18.542404    -35.019119    -15.366248    -11.981460    25.659063    0.000000    0.000000    0.000000    -7.878848    2.192947    -33.486588    7.855832    25.568327    -24.178905    2.692999    -0.187142    -37.522907    0.000000    0.000000    0.000000    
